<?xml version="1.0" encoding="UTF-8"?><svg id="b" xmlns="http://www.w3.org/2000/svg" width="512" height="512" viewBox="0 0 512 512"><g id="c"><rect width="512" height="512" fill="#1f67f1" stroke-width="0"/><path d="m82.3,360.3v-220.04l7.28-4.12c50.66-2.53,101.63-4.43,152.29-.95.32.32.63.32.63.32l-.32,54.14c-41.48-1.58-82.95,2.85-123.48,7.28-.63,8.55-.95,21.21-1.27,29.44,36.09-2.22,71.55-5.38,107.96-6.02v67.44c-19.95,6.02-48.76,14.88-68.39,20.58,1.27,17.41,3.17,34.51,4.43,51.29l-2.53.32c-6.65.32-12.35.63-18.36.32-19,.63-39.58,0-58.26,0Z" fill="#fff" stroke-width="0"/><path d="m353.63,196.61c2.22,0,2.22-4.43,2.22-6.33,0-6.33-12.67-8.55-19-8.55-14.88,0-27.54,10.45-42.42,10.45s-25.33-16.78-25.33-31.66c0-27.23,59.21-27.23,75.99-27.23h23.43c48.44,10.45,58.89,54.77,65.22,96.88,2.22,17.1,12.66,90.87,14.88,107.65v6.33c0,8.55-2.22,17.1-12.66,17.1h-37.99c-14.88,0-12.67-23.43-23.11-23.43-19,0-37.99,31.66-67.75,31.66-44.32,0-65.22-39.89-65.22-80.1,0-65.54,54.77-88.65,111.76-92.76Zm-31.66,105.43c12.66,0,37.99-12.66,37.99-29.44,0-4.43-6.33-8.55-8.55-8.55-12.66,0-39.89,14.88-39.89,27.54,0,8.23,4.12,10.45,10.45,10.45Z" fill="#fff" stroke-width="0"/><circle cx="212" cy="356" r="30" fill="#ff7a59" stroke-width="0"/></g></svg>