<?xml version="1.0" encoding="UTF-8"?><svg id="b" xmlns="http://www.w3.org/2000/svg" width="512" height="512" viewBox="0 0 512 512"><g id="c"><rect width="512" height="512" rx="72.06" ry="72.06" fill="#1f67f1" stroke-width="0"/><path d="m240.41,132.55c-50.66-3.49-101.63-1.59-152.29.95l-7.28,4.11v220.04c18.68,0,39.26.64,58.26,0,6.01.32,11.71,0,18.36-.31l2.53-.32c-1.26-16.78-3.16-33.88-4.43-51.29,19.63-5.7,48.44-14.57,68.39-20.58v-67.44c-36.41.64-71.87,3.8-107.96,6.02.31-8.23.63-20.9,1.26-29.45,40.53-4.43,82-8.86,123.48-7.28l.31-54.14s-.31,0-.63-.31Z" fill="#fff" stroke-width="0"/><path d="m432.28,227.53c-6.34-42.11-16.78-86.44-65.22-96.88h-23.43c-16.78,0-75.99,0-75.99,27.22,0,14.88,10.77,31.67,25.33,31.67s27.55-10.45,42.43-10.45c6.33,0,18.99,2.21,18.99,8.55,0,1.9,0,6.33-2.21,6.33-56.99,4.11-111.76,27.23-111.76,92.76,0,40.21,20.89,80.1,65.22,80.1,29.76,0,48.75-31.66,67.75-31.66,10.45,0,8.23,23.43,23.11,23.43h37.99c10.45,0,12.67-8.55,12.67-17.1v-6.33c-2.22-16.78-12.67-90.55-14.88-107.64Zm-85.39,81.9c-20.5,11.83-44.98,7.79-54.68-9.02-9.71-16.81-.96-40.03,19.53-51.86,20.5-11.83,44.98-7.8,54.69,9.01,9.7,16.81.96,40.03-19.54,51.87Z" fill="#fff" stroke-width="0"/><circle cx="210.54" cy="353.35" r="30" fill="#ff7a59" stroke-width="0"/></g></svg>