<svg xmlns="http://www.w3.org/2000/svg" viewBox="0 0 579.6 640.6"><path fill="#ea5b37" d="M338 443c-9-5-10 10-15 14q-10 14-18 29-9 14-19 27-3 6 2 9 9 6 19 8 7 0 9-6l37-61c6-9-8-16-15-20M435 498q2-4-2-7-20-31-39-63-5-8-11-2c-6 3-18 10-14 18l4 7q8 17 20 32c3 4 8 15 13 15l24 2q3 1 5-2M398 570l-11-11q-7-2-6 4l2 5q6 8 11 18c2 5 9 4 9-1q2-8-5-15M328 543q-3-1-4 2c-5 6-15 13-15 22q0 5 4 6 4 0 5-4l9-15c1-3 6-8 1-11M108 103q-9-1-13-8-8-7-14 1-1 3-5 4c-3 6 0 13 8 13l4 1q4 0 7 3c4 2 8 7 12 3q9-4 4-15zM146 130c-9-6-14-11-23-2l-1 4 1 2 3 3c5 2 6 2 5 8-1 5 4 11 9 7l1-1c2-4 8-2 9-6q3-9-4-15M428 514c-13 0-13 17 0 18 11 0 11-19 0-18"/><path fill="#1f67f1" d="M570 327q-13-19-36-22v-1c10-13 4-33-4-46q-11-18-27-35c-22-23-46-47-79-53l-20-4h-16q-3-1-2-3c0-3 7-2 9-2q18 0 35-7c9-4 10-5 10-15q-2-29-16-56-3-4-1-9c5-23-4-49-25-63-30-19-74-13-92 19-3 5-9 0-13 0q-15-2-29-3c-17 1-13 14 1 19l26 8q7 0 4 6-3 8-2 17c0 14-21 22-12 32 9 6 7 3 8 14q1 33 34 31 7-3 7 6 0 10-8 8-15 0-28 4c-29 10-41 39-59 61q-6 9-16 11-13 3-26-4-10-7-18-16c-7-7-10-19-23-13h-3q-6-7-5-16 3-1 5 1l3 1q6 1 12-1h1l4-2 3-1 2-3 3-3 3-7q0-3 2-6l-1-10c-8-30-22-44-45-63l-12-9-18-8q-9-6-17-7l-1-1h-2l-4-1c-24-5-57 0-72 20-13 18-12 42-4 62l8 15 1 2 3 2 7 10q7 5 11 11 15 13 33 21c15 9 26 1 34 8q4 2 9 5h1q3 1 5 4 9 5 2 13-3 7 1 14l16 17 22 17 11 5-1 1q-8 2-14 7l-2 1c-16 9-27 28-30 46q-4 20 7 36c14 32 43 52 69 73l11 7 5 4q10 6 19 12l12 7 9 4q5 3 5 9a484 484 0 0 0 4 95l4 13c6 18 28 5 37-3q5-7 8-15 9-21 20-39 6-7 6-16l3-4q1-2 4-1l15 9c5 4 12 9 13 16q0 6 3 10 11 16 19 34 4 13 11 22c9 8 22 15 33 9q9-18 11-39 4-40 1-80 0-9-8-13c-3-2 4-7-1-13l1-2q5-1 9-5h2c27-16 55-30 79-50 20-16 40-35 43-62q6-25-7-47M369 475q-2-2-6 0-3 4-6 0 0-2 2-3l10-8h3l16 26c1 1 7 7 5 8-4 4-9-2-11-5-8-2-3-7-9-8l-4-1c-5-2 3-5 0-9m60-176q-2-19-3-40c10 7 16 15 26 21 2 1 7 4 3 6l-15 8c-2 1-11 10-11 5m-7 56 1 1q4 6-1 11c-9 7-12 18-18 27q-2 5-7 9-6 8-16 10 2-4 6-6l6-5c0-16-19 15-26 5v-1q8-4 14-10 3-2 1-5-3-1-6 2l-11 8c-3 1-8 4-10 0q-1-1 1-2c4-2 20-11 15-17h-4q-7 9-18 13c-8 3-9-15-4-10 5 7 20-14 24-17 4-4 2-12-4-7q-3 4-8 0c-2-2 6-7 8-7h1c7-6 18-4 26-6 15-3 15-15 21-4l1 1 1 1 1 1q2 0 2 3l1 1q2 0 2 3zm64-1q7-5 16-6l2 3-7 4a277 277 0 0 0-62 39q-3 3-7 4l-1 1-3-2v-3l2-4-2 4q29-22 62-40m-248 20-5-3c-2-3-12-5-11-9l3-2 6 2 13 8 5 2v-4c-1-3-8-11-5-13s9 10 9 12l1 1v1l3 4q4 8 10 12 31 23 58 48c3 3-1 8-4 5l-28-24q-27-22-55-40m32-63v-3l2 1q5 2 10 6l2 1 3 2 2 1q3 0 5 3h3l1-1-1-3-3-2q-3 0-5-4-1 1-3-1l-9-5c-6-2-3-11 1-8q11 7 20 15l2 1 1 1 2 1 1 1 2 1 3 2q9 1 3 7 0 4-3 6v1l-3 4v1l-1 1-1 2-2 3-1 2-2 3-1 2-1 1v1l-1 1q-1 4-4 6v2q-3 5-8 2l-2-2-3-1-8-4-7-4-3-2-2-1-3-2-1-1-2-1q-3-1-4-5 2-7 7-1l2 1 1 1 2 1 1 1h1l1 1 4 2c3 0 6 4 9 3v-3l-20-13q-4-1-1-6l4-8c3-7 11 4 16 1l1-3zm62 67-13 5 22-38 2-3c5 6-2 16 12 26q5 2 0 4c-10 13-9-1-23 6m0-45q8 3 3 10l-20 35q-3 5-7 0c-5-3-5-3-2-8l20-35q2-5 6-2m-9-2-23 39q-2 3-5 1v-3l14-23 10-17q2-3 5 1zm33 112q3-2 5 1l5 12c-3 1-9-9-11-12zm13 1c-4-8 8-15 14-18q6-6 11 2 20 32 39 63 4 4 2 7t-5 2l-24-2c-5 0-10-11-13-15q-11-15-20-32zm45-48-2-1zm-4 3q0-3 4-1 14 9 26 22 4 8-3 8-19-3-36-14-4-1-1-4zm8 124c0-11 19-13 18 0 0 13-17 10-18 0m12-148q-8 0-2-5 2 2 2 5m-33-42 3 3q-1-2 1-3l2 2q-1 2-2 2zm-104-72v4q0 17-1 34l1 5-1-4-14-10c-7-2-9 5-11 10-2 4-6 3-5 10 1 6-17-3-21-3h-22 22l2-2q18-8 31-23l16-19zm5 266c-5-3-18-6-12-14q10-13 19-27 8-15 18-29c5-4 6-18 15-14 7 4 21 11 15 20q-16 32-37 61-7 10-18 3m144-33v-2zm2-310c28 13 74 58 85 87 13 33-16 50-37 69l-52 31q-3 3-4-1-6-23-25-38c-9-6-6-5 1-10q23-17 49-33l17-10q4-2 2-5c-1-4-11 4-14 5q-3 2-5-1-19-12-34-28l-3-6q-4-34-4-67 12 1 24 7m-12-57 1 16q0 3-3 4-14 6-27 7-18 1-35-1-4-1-2-4 6-13 8-27c1-6 6-1 14-7 16-13 8-39-14-30-6 6-4 6-11 1q-10-7-15-19l1-1 65 15c6 1 17 39 18 46m-120 21q-13-3-16-17-1-4 3-3 12 1 19-7 1-4-3-3-7 5-16 4c-9-1 1-11-11-16-9-5 12-10 11-34l2-12q0-4 3-3l33 7c8 1 3 16 26 30 11 7 8 0 16-4q10-3 11 8c1 7-6 16-15 14q-4-2-6 4-3 16-10 31-5 9 4 12l12 2c5-1 4 4 5 7q3 4-1 9c-8 11-37 13-44 0v-22q0-4 3-4 6-2 9-5 1-4-2-4-16 7-33 6m12 30q0-4 3-3c3 0 3 6 5 8 11 15 49 12 55-6q1-3 5-4l1 3-3 33q1 7-6 7-27 2-54-1-6 0-5-5zm-220 27c-3 17-24 12-35 7q-25-13-42-33-3-2-3-5-6-5-8-12l-4-7-1-2-3-12q-2-3-1-7-3-13 2-24 0-5 3-8c15-20 39-24 62-21q14 1 24 6l10 3q9 3 16 10l9 7a123 123 0 0 1 32 34q1 4 4 8 8 14 5 29v1l-4 7h-1l-2 2c-9 7-25 2-31-8-8-9-12-10-17-23l-3-2c-14-2-13 18-8 26q4 5-1 9c-4 4-2 10-3 15m5 17c-9-3 1-9 0-17q2-5 3-10l1-1q2 0 1 2c-1 3 3 11 6 8v-12q0-7-4-12-5-7-5-15 1-6 4-1c4 14 16 17 19 26 0 4 4 6 4 10-1 14 15 21 12 26q-5 10-14 17c-3 2-4-4-6-5q-9-12-21-16m16 28q1-3 3-3l2 2q-3 3-5 1m38 40-15-12-2-1c-7-3-11-11-16-16q-3-3 0-4 12-8 19-17 7-8 12-17 1-4 4-1c14 18 36 37 60 27q6-2 11-8l1-1q3-4 7-8l7-10c12-15 19-31 37-40l6-2a437 437 0 0 1-4 73c-16 19-39 50-66 50-21-5-43 1-61-13m167 258q-5 11-12 21c-2 6-8 6-9-2 0-9 10-16 15-22 3-5 8-1 6 3m6-13c-3 2-8-6-16 2q-3 6-9 7-5 0-5-4 0-2 2-2 10-1 14-9 3-6 7-2c2 2 9 5 7 8m40 15q-20-16-44-28c-5-3-1-7 1-10l16-26q2-6 6-2l24 17q7 5 11 13c4 7 12 12 15 20l5 16c0 7-7 13-14 8-14-17-13-3-20-8m14 28-7-10-2-5q-1-6 6-4l11 11q6 5 5 12c0 2 0 7-4 7q-3 1-5-2zm55-90"/><path fill="#1f67f1" d="M329 71c-3-4-22-6-21 0 0 4 10-1 17 4 5 3 9 0 4-4M324 88q-8 4-15-3-3 0-3 3 4 6 12 6c2 0 11-2 9-6zM378 107q1-5 6-7 3-1 2-3-1-3-4-2-6 1-8 8l1 3zM50 146q-8-3-10-12-6-3-12-1l-4 2q-7 6-2 12 7 4 6 11l3 6 2 1c6 1 11-3 16-3q6 2 8-4 1-8-7-12m-2 15 1-1q-1-2-3-1 2-1 3 1zM58 103q3-7-5-9-8-3-14 5l-2 1q-4 1-6 3v1q-3 5-1 9v2l1 1 2 2 6 3q7 1 14 3c7 0 12-8 6-13q-3-4-1-8M375 519l-22-14q-2-3-6 0-1 3 2 4l24 16h5q1-4-3-6M369 530l-25-15q-5 2-2 5l30 16q1-4-3-6M378 506l-21-13c-3-3-5 2-3 4l21 15 5 2 1-2q1-4-3-6M420 421c5 3 13-2 8-9l-3-2c-7-3-11 7-5 11M77 171c-10-1-15 10-9 18q6 7 15 9 10 1 11-10c0-8-8-17-17-17m8 21q-9-1-12-9-2-5 3-6c9-1 18 15 9 15"/><path fill="#ea5b37" d="M349 108c0 10-22 10-22 0s22-10 22 0" opacity=".5"/></svg>