<svg xmlns="http://www.w3.org/2000/svg" xml:space="preserve" viewBox="0 0 700 700"><g fill="#f85812"><path d="M258 592c2-6 10 0 14-2-2-6-8-5-12-7-5 0-4-6 1-5 5 0 17 5 15-5q0-10-11-9c-13 2-22-11-22-23 0-11-19 5-25 6-11 5 3 20 5 27q6 9 13 16c4 1 45 24 41 13-3-8-18-4-19-11M306 529c-17-19-19-30-41-8q-5 4 0 7c19 10 25 40 32 38 32-10 26-14 9-37M206 563q2 11 9 18c7 5 6-3 3-7-2-3-10-24-12-11M120 342q9-8 17-17c2-37-51 19-17 17"/></g><g fill="#508fe3"><path d="M663 380q-16 4-31 11l-54 20-69 26-18 8q-6 1-7 6l-5 13-15 45q-10 30-21 59l-10 29 37 10 42-19 2-1 43-20q19-10 40-18c12-5 12-5 16-17l14-41 11-31 13-37 13-37zm-96 112q-1 17-14 22-10 4-11-7-1-13 9-22 5-5 11-3 6 4 5 10M63 254c-13-12-46-27-48 1 1 15 13 25 23 33q2 2 4 0 9-15 21-28 4-4 0-6M601 554q-2-1-3 1l-51 24-55 26 11 2 37-17 41-19q8-5 18-9 3-1 3-4zM292 584c-5 9 38 21 46 27l-8-12c-8-2-33-20-38-15M258 404c-11 34-45 26-28 39 17 18 24-8 36-19 7-8-2-15-8-20M338 505l-1 2q6 1 1-2M438 555q3-2 0-2-2 1 0 2M137 325c-8 6-2 13-8 12q-6 0-7 7c-1 17 21 14 18-1 17 2 14-25-3-18"/></g><path fill="#3f70ba" d="M151 337q-2 5-8 6c17 29 36-12 8-6"/><g fill="#1f67f1"><path d="m503 615 71-33 25-13q9-3 9-13-1-3 3-6 5-2 6-8l15-43 15-41 15-43q5-13 8-27l1-7q0-10-11-9l-33 12-62 25-14 5q-5 4-12 4l-40 16-6 2-4-13-5-9-10-11-1-4q0-8-7-14a68 68 0 0 0-53-17c-26-2-53 4-79 9q-4 2-5-3c-16-37-27-89-72-101 11-3 19-10 30-10 7-1 33-5 26-15q-8-12-11-28 0-3 2-5 11-10 8-24c1-8-20-16-7-20 70-1 70-24 0-28q-6-1-5-5c-7-43-57-64-95-48q-32 12-41 47 1 20-12 37c-32 32-50 78 7 95q-1 3-3 2c-10 1-31 19-35 14-25-15-110-94-112-25 1 27 82 74 77 85-10 44-51 141 12 159-22 31-48 64-33 103m329-226q18-11 39-6 19 3 31 17 3 3 2 7l-5-6-8-8q-3-2-6 0-1 3 3 4 9 7 14 17l1 7q0 3-3 1l-3-5q-5-12-15-21c-5-4-9 0-4 5q7 5 11 13t3 17q1 2-1 2t-3-2l-2-7q-3-10-10-18c-1-4-17-12-13-3 11 6 22 20 15 32-3 0-3-5-4-7-3-12-17-21-28-21-2 7 6 9 6 15q4 4 1 7-4 2-6-3-4-2-6-5-5-7-11-11c-10-3-5-17 2-21m30 165q9-9 16 0-9 6-16 0m14 9q-2-1 0-2 3 0 0 2m-74 35c7-4 14-12 21-3-6 4-14 9-21 3m-17-8c8-3 16-13 23-4-7 6-15 11-23 4m73-12c-6 2-11 9-16 0 9-6 10-7 16 0m-14-16c11-6 11-6 18 0-6 3-13 8-18 0m-17 8c6-3 10-7 16-1-10 7-7 8-16 1m14 16c-7 3-11 8-17 1q11-9 17-1m-14-8c-9 7-10 7-18 1 7-4 12-8 18-1m-1 22q6-5 10 2c-7 4-12 10-18 2zm6 12c6-4 14-10 18-3q-2 4-8 6c-3 2-6-2-10-3m16-15q-6 4-10-2c9-7 10-7 17-1zm8 3c19-9 6 12-5 3zm0-14c4-3 10-8 13-2q0 2-2 3c-4 4-5 4-11-1m5-13-3-3c19-13 22 7 3 3m17-26q2-3 5-1v2c-2 3-4-1-5-1m-29 74q2-6 11-7m-121-28q-3-1-4-3l159-72 1 1-6 17q-2 7-8 9-51 23-101 48c-19 9 51 29 57 36m-56-116q2 2 1 3l-3-3q-16-13-33-26-4-4-4-9c0-7-9-12-15-8-9 5-5 22 6 19q4-1 7 2l36 29c4 1 2 5-1 2q-31-10-63-15-4 0-6-4c-3-10-19-30-14-38 7-5 18-27 23-25 13 6 33 4 41 17q13 28 25 56m-4-29c0-3 58-41 44-26-7 3-42 33-44 26m-74 52c6-5 17-18 25-10 6 7 40 40 27 46-8 3-21 16-26 4-9-26-35-34-26-40m73 90c-8-6-51-18-46-27 5-5 30 13 38 15m-63-315c34 18 41 61 56 93 2 7-12 6-9 13 3 4 20-9 27-8 77-12 37-12 40 19-1 6-10 5-14 8-19 5-37 17-56 18-33-10-27-2-22-34 3-14-2-27-7-40-7-20-6-41-15-60-2-3-6-12 0-9m1 68c6 0 5 8-1 8s-5-9 1-8m-10 52c6 5 15 12 8 20-8 7-16 27-26 25-6-3-25-13-8-16q18-8 26-29m-60-21c4 13 18-6 22-11 3-3-1-10 4-11 16 2-5 24-3 30 8-2 11-11 13-18l2-2c8 4 0 16-3 21-3 3-3 9 2 7 6-3 8-17 12-18 6 10-9 19-7 29 8-2 7-10 13-15-3 29-33 34-53 46h-5c-7-5-23-20-16-28q9-9 9-21c1-12 14-38 10-9m-19-94c-3-4-8-10-6-15 4-3 10 14 16 16 13 9 45 19 49-4 2-22 18 42 17 48 1 9 1 9-9 11-71 15-39 0-67-56m66-23q-15-4-28-14c-7-1-4 5-1 7 5 6 19 6 18 15-2 7-1 19-11 19q-20 2-35-13c-16-14 27 2 17-17q-8-21-9-44c-1-8-12-3-15-13-10-17 7-32 17-11 4 4 6-5 15-2 21 5 15 0 24 18 12 15 34 8 35-11q1-2 3-2c1 5 11 25 4 26-3 0-9-3-10 2 1 5 26 8 18-6l1-3c10-2 0 16-2 19-4 19-21 34-41 30m-6-68c-2-26 33-22 27 3-3 18-28 14-27-3m67 50c2 7-18 9-24 10q10-15 15-31 4 12 9 21m-8-61c2 3-1 10 3 11v-14c17 13-5 39-16 23-4-7-1-22 7-25q6-2 6 5m-66-13c5-7 38 0 49-2 3 0 20-2 13 4-5-1-8 4-12 5q-2 4-3 7c-3 11-8-1-10-6-10-13-31-8-35 8-4 3-12-2-18-2zm-92 78c-33-28 12-61 24-87q2-4 5-2c19 4 38 4 56 8-24 32-36-9-52 16-5 12 1 28 13 32q3 0 4 3 0 21 8 41 2 4-3 4-30 2-55-15m-8 38c5-1 13-11 17-5q9 15 15 34c-5-5-40-26-32-29m-94-2c-43-30-19-71 25-34q5 1 0 6-12 13-21 28-2 3-4 0m21 20c-4-5-15-9-11-17q8-13 20-25c5-6 5-6 11-1q68 48 132 101 4 3 1 6-2 4-7 7c1-8 0-19-11-16-10 10-12 25-14 40q-63-44-121-95m94 86c10 5 4 9 0 15zm-16 97c-100 40-60-95-45-145q11 7 21 16c7 8 37 23 35 33-3 7-1 19-10 22q-16 6-31 16c-9 5-3 10 4 5q26-14 55-24c5-4 6 16 13 21 2 5 21 14 16 17q-25 25-58 39m66 86c-9-2-41-15-44-17 4-2 47 11 44 17m17 5c-8 2-12-13-14-19-1-5 4-6 5-1 3 6 10 13 9 20m57 24q-2 1-5 0c-18-8-39-13-48-32-3-7-17-22-6-27 6-1 25-17 26-5 1 35 30 11 33 32 1 9-11 4-16 4-4-1-5 5-1 5 4 2 11 1 12 7-4 2-12-3-14 2 0 7 21 3 19 14m1-44c-8-11-26 1-28-16-2-6 5-8 10-11 6-9 35 39 18 27m10 49c-1-8-12-24-5-30 1-4-1-11 5-12-6 6-3 13-3 19-1 9 9 9 14 13l2 1 2 2h1m188 1 55-26 51-24q2-2 3-1l1 4q0 4-3 4-10 4-18 9l-41 19-37 17m-70-10 10-29 21-60 15-44 5-13q2-5 6-6l19-8 69-26 54-20q15-7 31-12l1 7-13 37-13 37-11 31-14 41c-4 12-4 13-16 17l-40 18-44 20-1 1-42 19M279 186"/><path d="M268 241c-8 2-13-7-20-6 0 9 14 12 20 11 6 0 6-6 0-5M188 190q-3-1-5 1c-2 2 5 6 4 10q0 6 6 5 2-10-5-16M259 206c3-2 3-11-3-11-7 4-4 16 3 11M289 199c-1 3 2 12 6 7 5-5 0-14-6-7"/></g><g fill="#1f67f1"><path d="M573 325c11-2 32 5 37-3l-3 2 2-1c-3-3-61-2-36 2m30-1h-18z"/><path d="M692 204q0-7-6-9H496q-11 0-8 11-1 74 0 147c3 4 8 1 12 2q39 1 76 3 9-1 5 6c0 6-2 34 8 23 22-32 15-30 54-31 15-2 34 5 47-4zm-13-1c4 0 4 7 0 7s-5-7 0-7m-12 0c4 0 4 7 0 7-5 0-5-8 0-7m-14-1c5 0 5 7 1 7-5 1-5-6-1-7m32 93c-2 8 5 60-6 55-22 3-62-8-76 7q-7 11-15 18c-4-7 4-22-6-25-24 2-49-1-74 0-4-1-16 2-14-5V221q-1-6 5-5h183c11 0 1 67 3 79M672 280"/><path d="M676 232c-4-8-18-2-26-5h-59c-42-4-21 16-26 47 0 4-3 11 3 11h107l1-1zm-89-2zm-13 1h30-3c21 2 44-2 64 1-54 29-39 25-91-1h-1zm-4 3c48 27 61 15 11 40q-6 4-12 5zm22 48h-2zq-8 0-17-1c53-29 40-26 93 1zm80-2c-16-5-30-17-46-23 9-10 32-16 46-24zM553 291c-53-1-49-12-47 44-2 10 37 4 45 6 6-15 2-34 2-50m-6 3c-19 23-15 22-34 0zm-37 39c-3-11 0-24-1-36l12 11c2 2 8 7 4 10-6 4-10 12-15 15m36 4h-35c5-5 16-22 21-17 4 6 13 11 14 17m4-3c-21-19-22-16-2-35 5-6 1 35 2 35M553 263c-9-9-28-2-40-4-11 3-11 19 2 19 12 0 26 3 37-2l3-9zM552 262q1 0 0 0M612 297c-4-9-34-1-44-4-4-1-5 25 0 22h42c3-5 0-12 2-18m-32-1c5 1 19-2 21 1-2-2-16 0-21-1q11 1 21 1-12 9-25-1zm-12 5c2-6 11 1 16 4l-15 5zm29 11h-21c10-5 15-8 25 0zm10-1-14-6q7-4 14-6 1 7 0 12M546 234l8-1c-8-7-34-1-46-3-9 7 33 3 38 4M554 239c-10 1-45-4-47 2 7 0 46 6 47-2M527 248c-6 6 20 3 24 3 10-5-20-3-24-3M610 333c0-7-12-3-18-4-5 2-28-4-26 3zM589 337c-7-1-30 1-11 3 10-2 27 5 33-3zM669 323c-14-1-32-5-45 2-12 24 28 16 40 17s16-15 5-19m-31 9c-1 5-7 1-3-1-4 2 3 6 3 1m2 0q1 3 5 2-4 1-5-2m10 0q-1 3-5 2 4 2 5-2m5-2-2 2v1-1q1-3 4-1zm6 0q-3 1-1 3-3-3 2-3zM672 295c-5 0-65-3-43 3 11-2 39 5 43-3M639 313c5 6 18 0 25 2 28-3-19-6-25-2M642 303c-3 0-22-2-16 3h8c11-2 34 5 39-3zM580 296"/></g><path fill="#ea5b37" d="M231 230c-13 0-13-12 0-12 12 0 12 12 0 12" opacity=".5"/></svg>