<svg xmlns="http://www.w3.org/2000/svg" xml:space="preserve" viewBox="0 0 700 700"><g fill="#ea5b37"><path d="m650 280-13-1q-7-1-13 3l-16 12-27 21q-9 8-9 18-1 9 7 10l58 10q10 2 9-7 3-18 7-37l3-21q1-8-6-8m-62 54q-5 0-5-5 1-4 5-5 5 0 5 5t-5 5m45 9q-5-2-5-6 0-6 5-6 6 1 6 6 0 6-6 6m8-45q-5-1-5-5 2-5 5-5 5 1 5 5-2 5-5 5M515 251l8 4 19 9 5 1 5-1 32-16 1-1q6-3 0-6l-29-14q-4-1-7 1l-12 6-22 11q-6 3 0 6M465 306l-8-17q-3-7-10-8l-25-4q-4-1-7 1-1 3 2 7l14 27q3 6 9 7l24 4h4q7 0 4-5zM550 315l-4-10q-2-7-10-8l-27-5q-7-2-4 6l16 31q2 4 6 5l30 5q6 1 3-5zM375 287l-8-16-3-4q-6-4-8 3l-3 18-2 11q0 5 4 5l26 5q5 1 3-5zM486 208c-6 1-12-4-18-4q-3 0-6-4-2-4-7-4-8 1-14 7-4 6 2 12l8 5c13 7 14 7 26 1l11-6q4-1 3-4-1-4-5-3M420 168q5-3 0-6l-4-2-16-8q-4-2-7 2l-12 26v2q0 3 3 2l9-3 25-12z"/><path d="M600 291q3 0 5-3 9-7 17-12 6-6 13-4h11q-7-10-16-5l-31 16-1 1q-4 1-4 4 2 3 6 3"/></g><g fill="#1f67f1"><path d="m663 272-91-44-63-30q-4-1-4-5 1-10-7-13l-4-4q-2-6-9-7-3 0-5-3-5-6-11-6-4 1-6-2c-5-3-14-3-18 1l-3 3h-6l-19-9-16-7-6-2q-4 0-6 3l-16 35q-3 7 3 9l26 13 3 1q7 3 7 11 0 7 2 16v8c-5-2-5-2-8 2l-17 20q-2 3-5 1l-17-2-8-2q-7 0-8 5l-3 19-2 9q-10-5-17-11-25-22-52-42-22-16-48-23l-9-1q-4-1-4-4v-4q0-3 3-3 13-2 23-9l9-2q12-2 23-9 8-4 3-9-9-14-14-30l-1-7q1-17-1-33 0-4 4-3 15-1 30-5l14-4q6-2 5-6 0-6-6-8l-14-2q-14-2-28-2h-5l-4-4q-9-38-49-47-29-6-55 11a62 62 0 0 0-27 48v5q1 11-6 20-8 13-17 24-11 16-12 36 0 17 13 26 20 13 43 15h8q0 3-2 3l-15 5q-13 6-23 16a77 77 0 0 0-24 52q-2 27 1 53l7 57v10l-1 4q-4 8-4 16l-1 11q-1 21-11 39-20 45-26 94l-6 53-6 62 272 4-13-78-18-98v-4q1-2 3-1 4-1 5-4 3-3 5-1 5 2 8 7l10 10q6 9 17 13l4 1 23-2 9-1q6 0 11-3l6-1q12 1 17-9 2-4 5-2l23 4 101 17 65 12q17 2 21-15l6-40 17-98 5-30q0-3 2-5 3-4 4-9l6-38 5-11 6-15q4-11-6-15m-65 12 1-1 31-16q9-5 16 5h-11q-7-2-13 4-9 5-17 12-1 3-6 3-4-1-5-4 0-2 4-3m-83-39 4-2 18-9 12-6q3-2 6-1l30 14q6 3 0 6l-1 1-32 16q-2 2-5 1l-5-1-19-9-8-4q-6-3 0-6m-22-44 4-15q4 8 0 17-1 2-3 2-2-1-1-4m0 46q42 21 84 41l16 8q-2 5-7 3l-24-4-98-17q-5 0-8-2l2-6q1-3-1-7-4-2-1-5 3-4 6-5 8-3 13-10 2-4 6-2zm64 92-31-5q-3 0-5-4l-16-32q-3-6 4-6l27 5q7 1 10 8l4 10 10 19q4 6-3 5m-89-16h-4l-24-4q-6-1-9-7l-14-27q-3-4-2-7 4-2 7-1l25 4q7 1 10 8l8 16 6 13q4 6-3 5m12-125 1-4q3-6 3-14l-1-3 1-2h3l1 2c4 5 3 19-2 24l-4 1q-3-1-2-4m-13-8q3-9 2-20l1-4q5 0 6 5c3 6 2 20-3 25q-3 3-5 0-4-2-1-6m-21-24 2-2q11-8 15 6 1 9-2 17-1 3-3 3l-4-2-1-4v-10q1-6-5-6zm-5 37q5-6 14-7 4 0 7 4t6 4c6 0 11 5 18 4q3-1 5 3 0 3-3 4l-11 6c-13 6-14 6-26-1l-9-5q-5-5-1-12m-7-18 3 3-2 9-3 10q-1 4 2 7 6 7 8 17v2l2 1 2-1 2-7 20 10q4 1 1 5-4 6-11 8-6 2-9 8-1 3-3 2l-25-13-1-5q2-4 1-9l-3-10q-2-7 1-15 5-11 12-20zm-41-4-9 4q-3 0-3-3v-2l12-26q3-4 7-2l16 8 4 2q5 3 0 7l-2 1zm15 68q2-4 6 0 11 8 24 13l11 5q3 1 2 2-1 7-6 6l-23-5-26-4q0-4 3-6zm-55 39 3-18q3-7 8-3l3 4 8 16 9 17q2 5-4 5l-25-5q-4 0-4-5zm-107-59q16 6 29 17l56 44q6 5 11 7 3 1 2 2 0 8 3 12v3l-5 32-4 19q0 7-6 4l-12-4q-18-10-34-21-2-1-2-4-2-19-10-37l-11-25-12-33-9-16h4m29 168q5-21 9-43 0-4 4-2l17 11q13 9 31 14l-1 9-3 18-5 24-5 30q0 4-4 4-6-1-6-5 1-5-4-7l-14-9-16-11q-4-1-3-5zm-13-96q-2 4-5 4-5-1-5-5 1-5 5-5 4 1 5 6m-3-136 2-6q4 9 9 17 3 3-1 4-8 4-17 7l-2-1v-2q6-8 9-19m-61-59 33-1 21-2q3 0 4 4 2 11 1 24v7q-1 19-9 36-4 11-12 18-9 6-20 6-9 0-16-3l-6-1h-2q-1 2 1 3l3 2q5 3 12 4 3 1 3 4l1 10q1 6-4 8l-5 2q-21 5-38-11-2-2-2-6 2-3 5-3h1q7-2 5-9l-2-5-6-18-4-17q1-7-7-7h-2c-7-3-13-14-10-22q2-5 6-7 6-1 10 5l3 5q1 3 4 0l4-3q13-7 22-19 2-4 6-4m-47 97q-24 0-43-14-13-10-11-25 2-16 12-29 12-13 19-30 1-3 5-3a338 338 0 0 0 53 5l-2 4q-6 7-14 12c-5 2-5 2-9-1l-3-3q-12-6-18 6l-2 7q-1 17 14 23 4 3 5 7a107 107 0 0 0 9 34q3 7-4 6zm3 16q1-2 3-1l3 2q14 13 34 14 16 2 24-12 4 2 5 5 13 26 19 54 2 7-4 6l-42 6q-4 1-6-4l-1-5q-10-35-34-62h-1zm37 90q-1 5-5 5-5 0-5-4t5-6q4 1 5 5m-25-19zh1zm8 355 6-17v1q4 11 6 24zm115-147q-1 3-5 2l-10-4a589 589 0 0 1-102-54q-13-9-21-21-17-24-29-50l-8-18q-2-2-5-1v4l5 13 13 26q2 3 1 7c-3 6-12 12-19 12q-4 0-4-4v-11q-2-38-8-75-3-27 2-52 6-26 28-41c4-2 4-2 8 1l8 6q7 10 12 21 7 13 10 27h-2q-1-2-3-1-3 1-1 4l2 5 19 41 23 47q4 7 10 12 24 19 50 34l40 25q4 3 2 7-7 19-16 38m108 18q-8 6-17 3l-12-6-5-3q-3-2-5 1 0 2 2 3l3 3 11 6q-6 2-10 0l-12-6q-1-2-4 0-1 2 2 4t6 5q-4 1-8-1l-6-4q-3-2-5 0 0 3 2 4l-1 1q-9-1-16-9-9-14-25-23 7-13 12-26 1-3 4-2 6 3 12 2l11-2q9 0 18 2 13 7 28 11l2 2-2 2q-5 2-9 2l-13-2q-4-1-6 2 0 4 2 5 9 8 18 14 9 7 21 9l3 1zm40-14q-4 3-9 1-7-4-6-10 1-11 10-11 6 1 8 8t-3 12m18-13q-1-3-5-1-2 2-1 5l2 4 4 7q2 3-3 3l-9-2-1-1q-1-1 1-1h7v-1q-3-4-4-10 0-6 4-7t7 5zm26 22q-6 2-10-4l5 2q6 0 7-4 1-5-1-10-2-3-6-3 5-3 8 2 3 3 2 8 0 7-5 9m24-12-2 14-3 3q-6 0-11-5 4-1 7 1 4 1 4-1c0-2 2-4-2-6q-3 1-4-2h4q3 1 4-3 0-3-3-4l-6-3q6 0 11 2zm20 1-3 17q-1 3-5 2-5-1-8-7-4-10 5-13l6-1h3zm14 16-1-1v-1l1 1zm2-8-1 1-1-2 1-1zm14 1-1 8q0 7-7 4-2 1-3-2h4q3 1 3-2 1-3-2-4l-2-1 2-1q3 1 4-2 0-3-3-3-2 1-3-2h5q5 0 3 5m9 6-1 6q1 2-2 2 0-6 1-11 1-3-2-4l-1-2c5 0 6 0 11 3q-5 0-6 6m15 11-1-1q-3-6-6-3l-4 3 7-16q2-2 3 1l2 15zm17-11-2 12q-1 4-5 2-5-2-6-9 2-7 9-9 4 0 4 4m7-13-1 1-3-1-46-8-115-20-86-15-6-1q-2 1-3-2 1-2 3-1h6l57 11 121 21 70 12 4 1v1zm-242-66q-2-1-2-3h2q3 1 5-2 1-4-3-5-3 1-5-3l9 2q2 1 2 4l-2 9q-1 13-13 5l1-1 6 1q2 1 3-1 2-4-3-6m10 2 1-5q3-5 8-5 4 1 5 6v5q0 10-7 9-6-1-7-10m18 3q3-8 11-9 6-1 5 3l-3 16q0 2-3 2c-5-1-10-8-10-12m35 6q-2 1-2-2h1q4 2 6-3-1-4-5-4l-4-3q5 0 9 1 3 1 3 5l-3 14q0 3-2 3-6 0-10-4 4-1 7 1 2 1 3-2 1-5-3-6m14 5q6-5 13-11 0 11-4 21c-2-6 1-10 0-14l-5 4-5 5q-3 2-3-1 1-9 3-16l2-1c1 4-2 8-1 13m14 10q3-12 12-20 3 12 3 23-4-2-3-5-2-4-5-4-2-1-3 3 0 2-4 3m31 2zq-2 3-6 3-4-2-4-5v-8q3-6-3-11 7 0 14 3l-1 2q-6-1-7 5l-1 5q-1 7 7 5m15 0-1 1h-1zm-1-8 2-1v1l-1 1zm8 1q-1-4 6-5 5 1 4 6l-4 12c-2-2 1-4 0-7-4 0-4 5-9 6q4-6 3-12m12 7q-1-3 2-6 2-3 5-3 4 0 5 4 1 6-2 12-5 5-9-1zm35 3q0-5-5-5l-1-1v-1q3-2 6 1c4 3 4 12 0 15q-3 3-6 1-4-1-3-4l1-1 1 1q5 4 6-1zm-14-1-2 7q0 2-2 2v-7l1-6c1-3-3-2-3-5q6-1 11 3-5 1-5 6m24 6q-2 0-3-3h2q3 1 4-2-1-4-3-3-2 0-3-2h3q7 0 5 5l-1 10q0 2-3 3l-8-3h6q2 0 3-2 0-3-2-3m9-3q-1-3 3-4 3-2 7 0 2 2 0 4l-1 8-1 5q-2-3-1-5-1-3-3-1-2 3-5 4v-2q4-4 1-9m15 0q0-2 2-1l1 1q0 8-4 15 0-8 1-15m14 0q4-1 4 3l-3 12q0 3-3 2-7-2-7-10 1-7 9-7m17-98-108-18-17-3q-3-1-3 2l-1 3-5 32-7 38q-1 7 4 6l10 1 87 16 31 5 5 3q-5 2-8 0l-65-11-90-16-96-17q-3 1-4-2 2-3 5-1l57 10 56 10q4 1 4-3l2-10 11-62q2-7-4-6l-89-16-25-5-2-2 2-1 17 3 110 19 40 7 87 15q2 1 5 3-4 2-9 0m-33 15q0 2 3 2 1-1 4-1l-1 2q-3 3-6 1-3-1-3-5 0-5 4-5 4-1 4-3-1-4-5-1v-1q2-4 5-2 3 1 3 4t-3 4l-4 2q-2 2-1 3m-25 27 8 18q2 1 1 2-1 3-3 2l-11-2-6-2q-2 0-3-2 2-2 4-2l3 1 10 2-7-17q-3-6 0-12 4-6 10-4 6 3 8 8l-1 2h-2l-4-5q-7-4-8 3zm-39-12q-2-5 3-8 9-4 16 2 2 1 1 3-2 12-5 26-1 6-6 5-10-1-17-8-2-4 0-9 4-6 10-6 0-4-2-5m2-33-1-1v-1h1zm-1 6-1 1-1-1zm10-1q-2 1-3-2h4q2 0 2-3 1-2-2-2-2-1-3-3h5q4 1 3 5l-4 13q-3 0-7-2 2-2 4 0 3 0 3-3 0-2-2-3m9 9-1-2 2-12q0-2 3-2c1 2-2 6 0 9l6-7 2-1 1 3-2 12-1 2-2-2q2-3-1-5-2 1-4 3v1q-1 2-3 1m20-4h-2l-1-2 1-1 2 1q3 1 3-2 1-3-2-3-2 0-4-2 2-2 4-1 6 1 4 6l-1 8q1 6-6 4-3 0-3-2 1-2 4-1 2 0 3-2 0-2-2-3m12 10q-4-1-5-4h3q4 3 6-2 2-7-5-10 5-3 6 1 3 6 0 12-2 3-5 3m6 44 3-19q1-6 4-11 3 3 2 6l-3 19-2 8-2 2-2-2zm-188-81 1 1-1 1zm0-7 1-1 1 1-1 1zm11 6-3-1 3-1q3 0 3-3 1-2-3-3-2 1-3-1 12-3 8 7v4q0 10-10 5l-1-1q3-2 5-1 2 2 3-1t-2-4m7 26q-3-5 3-5 8 0 16 3l2 2-2 1h-4l-9-1 2 4 4 5v4q-2 2-3 0l-3-1q-6-1-9 4-2 4 0 7 5 7 14 6c2 0 5-3 7 0-7 8-21 5-26-5q-2-10 6-15l7-1zm5-29q-2-2-1-5l6 7 1-3 1-2q3 0 1 2l-1 11q1 3-2 3-2-1-1-3l-1-3-2 1q-2 3-6 4 0-4 4-6t1-6m9 13q2-8 8-14l2 1 2 16q-4-7-10-1zm16-13q6-1 10 1l1 2-2 1q-3-1-3 3l-1 8q1 2-2 2v-7q2-6-3-10m218-60-3 22-7 37q1 8-9 6l-58-10q-8 1-6-9-1-10 8-18l27-21 16-13q6-4 13-3l13 2q7 0 6 7M562 430"/><path d="M229 158q10-1 7-10l-4-10q0-3-3-4-2 2-1 5l2 8q2 6-3 7l-2 2q1 3 4 2M232 170h-4q-6 1-12-2l-5-1-2 1q-1 1 1 3l3 1 13 4 6-2q2 0 1-2zM197 122h2l13-1 2 1q4 0 4-3l-3-2q-7-2-16-1l-4 2q-2 1-1 3zM238 121l16 1q1 1 1-1 1-3-3-4-6-2-14-1l-2 2q0 3 2 3M246 128q-3 0-4 4-2 4 1 6l4 1q3-1 2-6 1-4-3-5M211 136v-2q-1-4-4-5-3 1-4 4v2q0 4 4 6 3-1 4-5M149 129q-2 2 1 3l3 7q0 2 2 3 2 0 2-4 0-5-3-8-2-3-5-1M633 331q-5 0-5 6 0 5 5 6 6-1 6-6t-6-6M588 324q-4 1-5 5 0 5 5 5t5-5-5-5M641 288q-3 1-5 5 0 4 5 5 3 0 5-5 0-4-5-5M522 409q-5 1-7 4-1 4 2 7 5 4 11 5 2 1 3-1l1-4q4-10-7-10zM533 407q3-3 2-6c0-2 3-4 0-5q-4-3-10-1-3 1-1 6 3 4 9 6M436 488q-2-4-5-4-5 2-5 5l-1 3q1 9 7 8 5-2 5-9zM522 500c-4-2-12 3-12 8q1 6 7 8 2 1 2-1l3-12zM400 433l-7 4q-3 3-1 7l7 6 4-14q0-3-3-3M383 440v-5q1-3-2-4-2-1-5 1-3 3-2 7v1q0 5 4 6 3 0 5-6M461 454q3 1 2-2v-4q-3 1-3 4-1 2 1 2M430 356v-5q-3 3-2 4zM590 514q-2 0-4 5 0 5 3 7l2-1 2-10zM576 515q-2 0-2 2l2 2 1-3zM525 469q3-5 1-9 0-2-3-2l-3 2-1 5 1 4q3 3 5 0M599 481q2-4 1-10-4 0-6 5-1 3 2 6 2 3 3-1M511 460l1-3q0-2-2-2-3 0-3 2 1 3 4 3M577 472q3-1 2-3 0-3-3-2l-2 2q0 3 3 3"/></g><path fill="#ea5b37" d="M191 160q-12-1-13-8 1-6 13-7 11 0 12 7-1 7-12 8" opacity=".5"/></svg>