<svg xmlns="http://www.w3.org/2000/svg" xml:space="preserve" viewBox="0 0 700 700"><g fill="#1f67f1"><path d="M641 677v-1q10-21 15-43a146 146 0 0 0-18-115c-3-6-3-6 1-10q16-12 30-25 31-33 12-76-7-16-19-30-12-17-26-32-21-22-45-43-18-17-42-27-32-12-65-16-4-1-8 1-6 2-12-1-4 0-3-4 1-3 4-3h4q32 1 62-12 10-4 10-13 1-11-1-22c-5-24-10-48-23-70q-3-4-1-9 6-24-2-48-5-21-23-37-31-29-75-26-41 2-67 35c-3 4-5 11-10 12q-8 1-15-2-21-5-42-6l-12 3q-7 6-3 14 5 7 12 9 11 7 24 9l22 6q4 1 3 5l-3 13q0 2-2 3l-2-2q-12-9-25 0c-11 9-15 29-6 41q4 7 11 9 6 1 7 6l2 5q2 3-1 5-9 11-10 24-4 20 7 38l7 13v9q-1 7-8 5-4-2-7 1l-5 5q-18 27-34 54-17 26-29 54-2 7-8 3l-71-28q-46-19-94-36-11-3-14 10l1 9 5 15 39 113 21 59q2 8 7 13 6 4 6 11 0 9 9 12l58 28 67 31 26 13q8 2 14 6l25 12q5 1 1 6l-5 8-4 4m0-164q1 2 3 3-4-16-11-33l-1 4 1-4-2-8v-1h7l17 7 55 26v6-4q-5 5-12 3-4-1-7 2l-17 14q-3 3-5 1v1q-8-6-17-9l-8-4v-1zm170-8q5 3-1 4zm81-65-2 1zl-2 1q-1 3-4 3 3 0 4-3-5 1-9-1-18-4-26-22-3-7-5-17 20 20 43 35 1 2-1 4M414 636l-46 21q-2 3-5 1c-2-2-1-8 1-9l3-2q54-23 107-48l32-15 5-2q2 5 0 9l-32 15q-32 14-65 30m-73-58q-1-3 0-6 3-3 8 0l8 4-2 4-1 1 1-1-3 1h-1l-3 1h-2 2l-3-1-1-1h-2zm-18-53 5 2q3 2 1 3-2 3-4 1-3-2-2-6m79-8-1 3zm0-1q-2-4 0-9h17l1 1 6 1-6-1-12 7q-3 3-6 1m-7 9q-7 8-13 16-2 2-4 0l-10-4q0 5-2 4 2 1 2-4v1q-7-5-16-9v-3l16-12h4q12 3 23 11m51 65 5-3q7-4 1-9-4-4 0-8c5-7 7-8 16-6q10 4 22 2 9 1 16 7-3 4-6 4l-131 60-5 2q-3 1-4-2l-8-24q0-3 3-2l7 3q3 1 3 5-1 6 6 5l12-5 23-11zm-14-4q2-1 5 0zm8-2q2-3 5-3v2q-3 1-5 1m-88-3v1zm7-42-3-1zm4 4 6 3q10 2 8 12l1 1-1-1q-8-1-15-5l-12-6c5-6 6-7 13-4m25 30q5 3 3 8-2 3-5 1l-11-5q6-7 13-4m-13-5c-7 6-7 6-15 2l-6-4c9-6 11-6 21 2m-16 19-1-2 2-2c8-5 13 0 20 4-7 6-8 6-15 3zm18 16q5 2 8 5c-9 7-9 8-22-2 6-6 7-6 14-3m49-20-2-2 1-1q2-1 2 1l1 2zm-2 8q-8 8-18 2l-8-5q-2 0-1-2 2-6 8-4 10 4 19 9m-20 8c-6 6-8 6-15 3l-9-6q7-7 15-2zm-12-35q-1 3-3 2-3-1-6-4l6-1h3zm-48-30q4 1 7 4l-3 1q-6 6-14 1l-3-1 1 6q2 3-1 3l1-3-1-6q5-9 13-5m-14 16zm0 2 4 5q1-8 7-5l12 4c-7 7-7 7-14 4l-5-3zm15 44v-4l2-4 1-1-1 1-2 4q4-3 8-1l9 5q-6 9-14 4zm169-40 2-1q5-3 5 2l1 2q-5 1-8-3m-2-10-14 9q-11 5-23 2l-13-2q-11 1-17 10-3 7-11 12 1-9 4-15 4-8 12-14 4-3 3-6-3-3-8 0-12 8-19 21-1 6-7 11l-3 2q-2 2-3 1l-1-3q6-20 21-33 6-2 4-9-5 0-8 3-14 10-20 26l-5 9q-1 3-4 2-2-2-1-4 5-20 20-35l5-4v-5h-4q-8 5-13 12l-11 12q-4 5-10 6v-5l8-12q13-14 31-22 12-6 27-4l28 2q6 1 11-2 4-4 6 0 8 7 12 16l5 9c3 6 3 6-2 10M368 263c-4-1-2-3-2-5q0-6-2-11-1-4 3-5c11-2 12-1 12 11v1q0 12-11 9m-35 139v-2zm0 15 3-8h1q1 7 3 13 8 27 19 52 3 3 1 6l-11-4-36-16v-2q13-19 20-41m178-127 1-11q0-5 4-3 11 2 21 5 38 17 67 45 27 25 50 55 13 15 19 33 11 27-4 53-10 13-23 23-26 20-54 37l-52 28q-2 2-8 3l-1-3a107 107 0 0 0-37-59q-4-3 0-5l9-6 53-34q19-12 39-22 4-1 6-5 3-2 1-5-1-3-6-1l-11 5q-8 7-16 0a292 292 0 0 1-52-47q-6-11-7-24-2-31 1-62m-47-14 2-4q1-2 4-2 2 1 2 3v4l-4 50-3 6q-47 4-92-2l-1-1-3-1 3 1-2-50v-4q1-4 4-5 3 1 3 3l2 5q6 12 17 16 27 10 54-3 9-6 14-16m67-69v19q1 5-4 6c-29 12-60 12-91 8q-3 0-5-2 6-12 9-26 3-8 4-17 1-6 6-6c15 2 29-15 27-33-2-13-14-20-24-18l-8 3q-4 2-8 3-8-1-14-6-10-9-17-25l21 4 45 10q15 5 31 7 4 1 5 4 17 33 23 69m-159-93q-18-2-29 13l-2 4q-1 3-5 2-3 0-3-4l1-16c3-15 3-14 16-12l38 8q7 1 9 7 5 15 17 25l-8 1c-8-1-8 1-11-8q-5-17-23-20m17 29q-1 21-21 23c-12 0-22-10-22-22 0-13 10-23 21-23q21 3 22 22m-63 11q3-3 3-7 2-5 6-5 3 1 4 4l1 4q8 28 36 22h2l6-3q1-2 3-2 6-6 9-15 1-5 7-4l12 1q9 0 15 5l6 3q5 1 8-2l1-2q9-10 17-5 10 8 4 20l-3 6q-5 8-15 6-9-4-11 6l-7 29-7 16-2 6q-3 9 6 11l20 4 4 1c2 1 5 15 4 17q-5 13-19 16-13 4-28 2-12-1-20-11-3-4-1-10 3-10 1-20c-2-9-1-8 6-11l8-4q5-1 3-6-2-4-7-1a82 82 0 0 1-50 6q-11-4-15-15-5-14-5-27 0-10-9-18-4-2 0-7zm-24 2c-9-7-13-28 2-37q4-3 8-1 11 3 12 14 2 6-5 6-7 2-15-2-3-1-4 1v4q6 6 14 4 3-1 6-1-2 7-5 11-6 7-13 1m7 69q-5-19 5-37 1-2 3-2l3 16 1 8q4 23 25 30 13 4 12 17-3 15-8 28-2 3-5 2-12-3-25-9-3-2-1-6l3-5q5-8 0-17-8-12-13-25m-69 161q2-6 6-11 16-31 34-60l18-30c4-6 5-6 11-3q17 10 37 15l5 2q6 1 4 6l-3 16-25 86q-8 23-20 45h2-2l-3 4q-4 2-7-4l-9-28q-6-18-25-23l-21-8q-6-2-2-7M119 527l-34-97-23-66-7-21q-3-5-2-12l17 6 92 35 98 38q15 5 19 19l28 82q1 4 3 7 0 7 4 13 1 5 3 11l31 90q2 2 1 5-4 1-6-1l-135-62-80-37q-6-3-9-10m129 83-85-39-24-12q-8-2-8-11l27 12 145 67 37 17 8 3q7 2 6 8 1 6-5 3zm212 57 13-25q1-5 7-5 0 7-4 14"/><path d="M110 303q9-1 14 7l21 29q3 3 5 4 4-2 4-6v-26q-2-9 6-7l24-1 72-2h7q9 0 8-9V145l-1-33q0-9-9-9H54l-28 1q-6 0-7 7v90l2 89v5q0 6 6 7h9zm157-174zM42 295H32q-4 0-4-4v-4l-2-147c0-10 0-10 10-10h228v157c0 7 0 7-8 7l-66 2-24 1-9-1q-8-2-9 7v18l-1 7q-7-7-11-15-5-5-9-11-4-7-13-7zM339 205l3 1q16 4 30-8 4-3 1-6t-6 1q-10 8-21 7l-5-1q-3 0-4 2-1 3 2 4M447 170q3 2 4-1 4-4 9-7l3-4q0-3-5-3c-5-1-12 6-13 12zM376 144q-9 5-17-2-2-2-5-1-2 3 1 5 5 6 12 6 8 0 12-3v-5z"/><path d="M56 140q-4-3-7 2l1 34v105q-1 5 2 8 6-5 4-10zM112 275l-4-1H74q-5 0-6 4 0 5 6 4h28l10-1q3 0 3-3t-3-3M201 183h41q4-3-1-5l-5-1h-30l-5 1q-2 1-2 3zM109 205q-2 1-3 3 1 3 4 3h39q3 0 3-3t-3-3h-4l-29-1zM70 170h34q3-2 3-5l-3-1-31-1-6 2q-1 4 3 5M142 197h30l4-1q3-2 1-5l-4-1c-12 0-25-3-36 4q2 4 5 3M87 191q-3 0-3 3 1 3 3 3h30q4 0 4-3t-4-4H93zM185 194q0 3 3 3h19q3 0 4-3 0-3-4-4h-19q-4 0-3 4M174 183h14q3 0 4-3-1-3-4-3l-16 1h-2q0 5 4 5M122 240q4-1 3-4 0-3-3-3h-15q-2-1-3 2t3 5zM134 247h-17q-3 0-3 3 0 2 3 3h16q3 0 3-2zM107 251q0-4-3-4H92q-3 0-3 3t3 3h12q3 0 3-2M200 259q-7-2-13 1-2 1-2 3 0 3 3 3h11q3 0 3-4zM102 267q4-1 4-3 0-4-3-4H93q-3 1-4 4 2 3 5 2h4zM88 211h8q3 0 4-3 0-4-4-3l-12 1q0 5 4 5M91 184h6l3-3q0-2-3-3H86q-3 0-3 3t3 3zM87 239l3 1q9 0 7-5-1-4-6-2-4-1-6 4zM40 274q-6 0-6 5 0 3 5 3t6-4q-1-4-5-4M40 240q4 0 4-4t-5-4q-5 0-4 4 0 4 5 4M39 212q5-1 6-4-1-5-5-4-5 0-5 4t4 4M40 170q4 0 4-4t-4-4q-5-1-5 4 0 4 5 4M39 226q5 1 6-3 0-5-5-4-5-1-5 4 1 4 4 3M227 201h-3v2q5 4 1 7v3q6-1 7-6-1-4-5-6M40 184q4 0 4-4 0-5-5-3-3-2-4 3 0 4 5 4M40 260q-4-1-5 4 0 4 5 4t5-4-5-4M41 156v-11l-4 2q0 5 4 9M145 246l-3 3q1 4 5 4 2 0 3-3-1-3-5-4M159 246q-3 0-4 4 0 2 3 3 3 0 4-3 0-3-3-4M130 196l3-2q0-3-2-3-3 0-3 2 0 3 2 3M217 205q-2 1-2 3-1 2 2 3 3-1 3-3 0-3-3-3M209 205q-3 0-3 3l2 2q3 0 3-3z"/></g><g fill="#ea5b37"><path d="M172 266h4q3-1 3-4l-3-3h-6l-28 1q-10 1-21-1-8 0-8 4 2 5 8 3h51M155 184l6-1q5 0 2-5h-1l-8-1h-41q-4 0-6 4 1 5 6 3zM159 208q1 4 5 3h31q4 0 5-3-1-4-5-3l-16-1h-15q-4 0-5 4M111 151c-1 2-4 4-1 6 2 1 4-3 5-4l2-3v-3l-7-7-4 2h-4l-1 6-4-2h-7q-4 3-3 7 1 2 3 1h11q4 1 4-2-1-4 1-10 6 3 5 9M79 218l-1-2h-2q-4 1-6 6v3q3 4 7 6l2-2v-1q-5-6 0-10M85 154l1-2q0-4-4-6-2-1-2-4l-3-1-1 12 2 2 2-2q0-3 2 0 1 2 3 1M75 155c-6-3-3-8-3-12q-4 0-6 3-2 11 9 9M40 198q4 0 4-5 1-4-4-3-5 0-5 3 0 4 5 5M41 246q-6 0-6 4 1 4 3 3 6 1 7-4-1-3-4-3M84 217q-2 0-2 2 3 4 0 7-1 3 2 3c2 0 6-5 6-7q-1-4-6-5M188 455q-13-4-17 9-3 15 5 28 3 5 10 8c11 5 22-2 22-14 0-13-8-26-20-31m12 14q-3-2-8-2l-1-2 1 2q7-1 8 2"/></g><ellipse cx="400.6" cy="182.8" fill="#ea5b37" opacity=".5" rx="13.4" ry="8.3"/></svg>